<svg xmlns="http://www.w3.org/2000/svg" xmlns:xlink="http://www.w3.org/1999/xlink" viewBox="0 0 462.16 391.34"><defs><style>.cls-1{fill:#e5e5ec;}.cls-2{fill:#dad7eb;}.cls-3{fill:#a7a3d1;}.cls-4{fill:url(#linear-gradient);}.cls-5{fill:url(#linear-gradient-2);}.cls-6{fill:url(#linear-gradient-3);}.cls-7{fill:url(#linear-gradient-4);}.cls-8{fill:url(#linear-gradient-5);}.cls-9{fill:url(#linear-gradient-6);}.cls-10{fill:url(#linear-gradient-7);}.cls-11{fill:url(#linear-gradient-8);}.cls-12{fill:#e7b142;}.cls-13{fill:url(#linear-gradient-9);}.cls-14,.cls-24,.cls-27,.cls-31,.cls-34{fill:none;}.cls-14{stroke:#fff;opacity:0.47;}.cls-14,.cls-31,.cls-34{stroke-miterlimit:10;}.cls-15{fill:url(#linear-gradient-10);}.cls-16{fill:url(#linear-gradient-11);}.cls-17{fill:#b6b6ce;}.cls-18{fill:#d36762;}.cls-19{fill:#282e4e;}.cls-20{fill:#ff897f;}.cls-21{fill:#bdbed1;}.cls-22{fill:#d3d5e2;}.cls-23{fill:url(#linear-gradient-12);}.cls-24{stroke:#ba6561;}.cls-24,.cls-27{stroke-linecap:round;stroke-linejoin:round;}.cls-25{fill:url(#linear-gradient-13);}.cls-26{fill:url(#linear-gradient-14);}.cls-27,.cls-31{stroke:#f96786;}.cls-28{fill:url(#linear-gradient-15);}.cls-29{fill:#464f96;}.cls-30{fill:url(#linear-gradient-16);}.cls-32{fill:url(#linear-gradient-17);}.cls-33{fill:url(#linear-gradient-18);}.cls-34{stroke:#7954b3;}</style><linearGradient id="linear-gradient" x1="15.25" y1="282.2" x2="33.36" y2="308.43" gradientUnits="userSpaceOnUse"><stop offset="0" stop-color="#dc911b"/><stop offset="1" stop-color="#e7b142"/></linearGradient><linearGradient id="linear-gradient-2" x1="42.09" y1="312.02" x2="59.67" y2="312.02" xlink:href="#linear-gradient"/><linearGradient id="linear-gradient-3" x1="29.02" y1="309.98" x2="23.82" y2="337.45" xlink:href="#linear-gradient"/><linearGradient id="linear-gradient-4" x1="46.22" y1="296.73" x2="48.99" y2="344.46" gradientUnits="userSpaceOnUse"><stop offset="0" stop-color="#ffe9ec"/><stop offset="1" stop-color="#a7a3d1"/></linearGradient><linearGradient id="linear-gradient-5" x1="272.55" y1="364.19" x2="270.47" y2="334.22" xlink:href="#linear-gradient"/><linearGradient id="linear-gradient-6" x1="434.17" y1="254.48" x2="417.78" y2="341.05" gradientTransform="translate(-64.32 109.78) rotate(-13.72)" xlink:href="#linear-gradient-4"/><linearGradient id="linear-gradient-7" x1="422.88" y1="304.1" x2="436.82" y2="315.34" xlink:href="#linear-gradient-4"/><linearGradient id="linear-gradient-8" x1="363.37" y1="338.84" x2="443.87" y2="338.84" xlink:href="#linear-gradient"/><linearGradient id="linear-gradient-9" x1="156.53" y1="177.4" x2="334.85" y2="85.63" gradientUnits="userSpaceOnUse"><stop offset="0" stop-color="#7954b3"/><stop offset="0.05" stop-color="#7153ae"/><stop offset="0.21" stop-color="#5951a1"/><stop offset="0.37" stop-color="#4b4f99"/><stop offset="0.5" stop-color="#464f96"/><stop offset="0.64" stop-color="#4a4f98"/><stop offset="0.78" stop-color="#56519f"/><stop offset="0.92" stop-color="#6952aa"/><stop offset="1" stop-color="#7954b3"/></linearGradient><linearGradient id="linear-gradient-10" x1="108.39" y1="137.13" x2="93.96" y2="81.62" xlink:href="#linear-gradient"/><linearGradient id="linear-gradient-11" x1="341.74" y1="117.8" x2="385.01" y2="117.8" xlink:href="#linear-gradient"/><linearGradient id="linear-gradient-12" x1="316" y1="290.72" x2="299.35" y2="257.97" gradientUnits="userSpaceOnUse"><stop offset="0.15" stop-color="#464f96"/><stop offset="0.4" stop-color="#4a4f98"/><stop offset="0.63" stop-color="#55509f"/><stop offset="0.85" stop-color="#6852a9"/><stop offset="1" stop-color="#7954b3"/></linearGradient><linearGradient id="linear-gradient-13" x1="196.11" y1="277.64" x2="137.28" y2="324.26" gradientUnits="userSpaceOnUse"><stop offset="0" stop-color="#cd536c"/><stop offset="1" stop-color="#8b1f5a"/></linearGradient><linearGradient id="linear-gradient-14" x1="170.81" y1="282.37" x2="150.83" y2="199.53" xlink:href="#linear-gradient-12"/><linearGradient id="linear-gradient-15" x1="138.79" y1="227.15" x2="152.78" y2="199.4" gradientUnits="userSpaceOnUse"><stop offset="0" stop-color="#464f96"/><stop offset="0.28" stop-color="#4a4f98"/><stop offset="0.56" stop-color="#56519f"/><stop offset="0.84" stop-color="#6a53ab"/><stop offset="1" stop-color="#7954b3"/></linearGradient><linearGradient id="linear-gradient-16" x1="375.74" y1="275.85" x2="431.77" y2="275.85" xlink:href="#linear-gradient-13"/><linearGradient id="linear-gradient-17" x1="59.64" y1="185.21" x2="77.41" y2="252.37" xlink:href="#linear-gradient-13"/><linearGradient id="linear-gradient-18" x1="59.51" y1="236.45" x2="86.42" y2="338.2" xlink:href="#linear-gradient-15"/></defs><g id="Layer_2" data-name="Layer 2"><g id="OBJECT"><path class="cls-1" d="M237.37,29.24S184,26.9,153.93,74.94s-52.11,27-85.85,63.66S41.35,252.34,45.24,283.73s17.54,66.54,17.54,66.54H421.09s36.6-150.44,5.2-206.23S327,85.48,308.32,57.36,237.37,29.24,237.37,29.24Z"/><path class="cls-2" d="M8.55,348.22s102.36-8.31,440.72,2.42c7.83.25,29.33,22.27-10.26,28.79s-73.44,0-130.73,9.16-114.78-7.5-169.36-7.5-57.39-2.76-83.24-5.57C14,371-15.26,352.56,8.55,348.22Z"/><path class="cls-3" d="M355.82,334.69c-5.83-.78-10.7,14-10.7,14l-.05-.07a53,53,0,0,1-2.09-9.71c1.09-.82,7-5.3,8.37-7.15,1.55-2,1.46-7-1.46-7.29s-7.1,11.86-7.1,11.86l-.16-.24c-.31-2.91-.53-5.87-.67-8.66,1.51-1.62,5-5.53,5.79-7.43,1-2.44,1.07-4.87-1.07-4.87-1.63,0-3.92,4.92-4.91,7.25-.06-2.32-.08-4.35-.07-5.91a46.82,46.82,0,0,0,3-8.05c.49-2.72.49-6.9-1.36-7.39s-3.89,1.95-4.57,6.32c-.51,3.32,1.15,7.41,2,9.2,0,1.54,0,3.5.06,5.75-1-2.82-3.53-9.34-6.42-10.28-1.67-.54-3.5,1.26-2.72,4.57s8.17,9.73,8.17,9.73l1.19,1.56c.11,2.12.26,4.33.48,6.54-1.8-2.6-5.29-7.18-9-9.27-2.54-1.45-8.85,1.46-5.16,6.22,3.14,4,12,6.76,14.62,7.49a64,64,0,0,0,1.61,8.24c-3-3.15-10.09-9.81-14.87-8.92-6.22,1.17-7.39,7.2-1.94,9.73s18.28,2.72,18.28,2.72,7.78-3.5,10.7-5.83S361.66,335.47,355.82,334.69Z"/><path class="cls-4" d="M13,279.69s-2.36,9.69,4.3,25.51,32.64,33,32.64,33a79.1,79.1,0,0,0-7.35-36.91C33.65,282.72,13,279.69,13,279.69Z"/><path class="cls-5" d="M50.09,286.78s-5.33,5-7.62,17.26,6.61,33.21,6.61,33.21a57.67,57.67,0,0,0,10.34-25.42C61.46,296.93,50.09,286.78,50.09,286.78Z"/><path class="cls-6" d="M1.15,322.28s3.32,6.47,14.54,12S49.45,337,49.45,337A57.63,57.63,0,0,0,27.8,320.11C14,314.1,1.15,322.28,1.15,322.28Z"/><path class="cls-7" d="M27.64,348.22H89.46a19.22,19.22,0,0,0-8.66-12.81c-7.78-5.08-16.71,0-16.71,0S59.8,324.62,44,324.62s-18.16,11.8-18.16,11.8S11,332.91,9,348.22Z"/><path class="cls-8" d="M250,350.27h61.82a19.22,19.22,0,0,0-8.65-12.81c-7.78-5.08-16.72,0-16.72,0s-4.29-10.79-20.11-10.79-18.16,11.8-18.16,11.8-14.78-3.51-16.85,11.8Z"/><path class="cls-9" d="M409.14,337.34s-1.75-7.7-1.37-13.44,7-6.51,7.2-11.12-1.48-10.5,4-13.7,1.21-6.3,4.57-11.83,7.3-3.78,9.34-1.71-2.76,11.67-.4,16.67-5.26,14.18-4.39,16.24,3.92,5.83,3.54,11.87a13.66,13.66,0,0,1-4.85,9.41Z"/><path class="cls-10" d="M415.05,334.73s.95-7.84,3.24-13.12,8.82-3.76,10.53-8.05S431,303.18,437.24,302s3.26-5.52,8.29-9.6,8.15-1.1,9.37,1.53-6.53,10.06-6,15.56-9.72,11.58-9.6,13.82,1.72,6.81-.67,12.37a13.66,13.66,0,0,1-7.73,7.23Z"/><path class="cls-11" d="M382,350.64h61.83a19.26,19.26,0,0,0-8.66-12.81c-7.78-5.08-16.71,0-16.71,0s-4.3-10.78-20.12-10.78-18.15,11.79-18.15,11.79-14.79-3.51-16.86,11.8Z"/><path class="cls-3" d="M172.94,320.22s2.72.38,9.14,6.61a19.39,19.39,0,0,1,6.19,13.42s2.18-14.78,10.15-20a33.67,33.67,0,0,1,0,22.36A33.36,33.36,0,0,1,219,330.14s-1,12.72-11.28,20.46h-30A28.7,28.7,0,0,1,172.94,320.22Z"/><path class="cls-12" d="M135.33,329.9c-5.84-.77-10.7,14-10.7,14l0-.06a53.38,53.38,0,0,1-2.09-9.71c1.09-.83,7-5.3,8.37-7.16,1.55-2,1.46-7-1.46-7.29s-7.1,11.87-7.1,11.87l-.16-.25c-.31-2.91-.53-5.87-.67-8.66,1.5-1.62,5-5.53,5.79-7.43,1-2.43,1.07-4.87-1.07-4.87-1.63,0-3.92,4.92-4.91,7.25-.06-2.31-.08-4.35-.08-5.91a46,46,0,0,0,3-8.05c.49-2.72.49-6.9-1.36-7.39s-3.89,1.95-4.57,6.32c-.52,3.32,1.14,7.41,2,9.2,0,1.54,0,3.5.06,5.75-1-2.82-3.53-9.34-6.42-10.28-1.67-.54-3.5,1.27-2.72,4.57s8.17,9.73,8.17,9.73l1.19,1.56c.11,2.12.26,4.33.47,6.54-1.79-2.6-5.28-7.17-9-9.27-2.55-1.45-8.85,1.46-5.16,6.23,3.13,4,12,6.75,14.62,7.48a63.69,63.69,0,0,0,1.61,8.24c-3-3.15-10.09-9.81-14.87-8.92-6.22,1.17-7.39,7.2-1.94,9.73s18.28,2.72,18.28,2.72,7.78-3.5,10.7-5.83S141.17,330.68,135.33,329.9Z"/><path class="cls-13" d="M138.35,64.13c0-1.7,14.59-64.13,90.26-64.13C279.51,0,325,33.25,325,81.09c0,33.26-24.77,53.62-57.34,67.53-11.54,5.09-11.88,14.59-11.88,25.78v19h-56v-37c0-14.93.68-27.14,15.94-37,20.7-13.24,40-14.25,40-38.35,0-16.28-12.21-27.82-27.48-27.82-24.43,0-36.31,20.36-40,34.95Zm128.26,187.3a38.85,38.85,0,1,1-39-39A38.74,38.74,0,0,1,266.61,251.43Z"/><path class="cls-14" d="M137.45,75.17c0-1.59,15.13-68.9,85.88-68.9,47.6,0,90.12,31.1,90.12,75.84,0,31.09-23.17,50.13-53.63,63.14-10.78,4.76-11.1,13.64-11.1,24.11v17.77H196.37V152.55c0-14,.63-25.39,14.91-34.59,19.35-12.37,37.44-13.33,37.44-35.85,0-15.23-11.42-26-25.7-26-22.85,0-35.44,28-38.93,41.61ZM268,247.06a36.33,36.33,0,1,1-36.49-36.49A36.22,36.22,0,0,1,268,247.06Z"/><path class="cls-15" d="M73.65,86.8C73.52,86.44,72,72.2,87.9,66.58c10.73-3.78,22.78-.15,26.34,9.93,2.47,7-1.24,13.14-7.07,18.49-2.06,1.93-1.42,4-.59,6.32l1.41,4-11.8,4.16-2.74-7.79c-1.11-3.15-1.88-5.77.61-9,3.38-4.33,7.38-6,5.59-11.06a6,6,0,0,0-7.86-3.82c-5.15,1.82-6.14,7-5.84,10.34Zm40.94,29.94a8.69,8.69,0,1,1-11.12-5.32A8.65,8.65,0,0,1,114.59,116.74Z"/><path class="cls-16" d="M346.21,94.41c.13-.35,8-12.3,23.89-6.43,10.67,4,17.61,14.44,13.9,24.47-2.58,7-9.35,9.31-17.25,9.7-2.81.17-3.62,2.13-4.49,4.48l-1.47,4-11.74-4.34,2.87-7.75c1.16-3.13,2.25-5.64,6.21-6.52,5.37-1.16,9.5.12,11.37-4.92a6,6,0,0,0-3.6-8c-5.12-1.89-9.19,1.45-11.1,4.22Zm12.35,49.2a8.68,8.68,0,1,1-5.15-11.2A8.66,8.66,0,0,1,358.56,143.61Z"/><path class="cls-17" d="M150.63,112.65c.07-.19,4.34-6.64,12.89-3.48,5.76,2.14,9.51,7.8,7.51,13.21-1.4,3.76-5.05,5-9.32,5.24-1.51.09-2,1.15-2.42,2.41l-.79,2.15-6.34-2.34,1.55-4.18c.63-1.69,1.22-3,3.35-3.52,2.9-.63,5.13.07,6.14-2.66a3.27,3.27,0,0,0-1.95-4.3c-2.76-1-4.95.79-6,2.28Zm6.66,26.55a4.68,4.68,0,1,1-2.77-6A4.66,4.66,0,0,1,157.29,139.2Z"/><path class="cls-1" d="M334.14,34.61c0-.24.89-9.33,11.59-10.72,7.2-.94,14.24,2.93,15.12,9.7.61,4.7-2.52,8-6.87,10.6-1.54.93-1.42,2.28-1.21,3.87l.35,2.68-7.92,1-.68-5.23c-.27-2.11-.4-3.85,1.58-5.52,2.68-2.26,5.4-2.75,5-6.16a3.86,3.86,0,0,0-4.4-3.43c-3.45.45-4.76,3.54-5,5.68Zm21.58,24.14a5.54,5.54,0,1,1-6.24-4.8A5.53,5.53,0,0,1,355.72,58.75Z"/><path class="cls-18" d="M298.13,301l21.62,45.4-.57,6.63c3.12,1.65,10.93-9.19,10.93-9.19l-2.26-2.78S321.11,306,315.53,301Z"/><path class="cls-19" d="M319.24,351.5s-1.51,2.43-3.35,4.83-3.76,5.12-2.94,6.37,9.45-4.73,15.71-9,5.4-4.39,5.29-5.08-4.17-5.42-4.17-5.42-4.66,6.05-7.42,7.86S319.24,351.5,319.24,351.5Z"/><path class="cls-20" d="M317.61,301,300,296.43l5.07,57.71-5.07,5h16.18l-.81-4.61C315.75,349.31,318.54,311.14,317.61,301Z"/><path class="cls-20" d="M318.75,216.94s7.09,16.33,8.17,23.42S317.46,258,317.46,258Z"/><path class="cls-20" d="M297.41,181.5l-1.14,3.36s-2.72,0-3,.86,1.43,2.29,1.43,2.29-1.82,7.24.22,10.57,14.28,1.5,14.28,1.5A10.79,10.79,0,0,0,317,194c2.8-5.59,4.84-9.88,3.76-15.47-.62-3.26-6.47-5.53-12.16-5.36A12.3,12.3,0,0,0,297.41,181.5Z"/><polygon class="cls-20" points="302 199.44 301.24 206.85 313.6 205.13 314.58 197.32 302 199.44"/><path class="cls-21" d="M309.23,204.22s-9.81,0-13.79,9.07c-5.43,12.43-.17,30.58-.17,30.58l-1,9.84s1.72,4.26,27.91-.25L318.75,244s3.11-21.9,2.33-28.8C320,205.92,309.23,204.22,309.23,204.22Z"/><path class="cls-19" d="M302.4,175.09a15.15,15.15,0,0,0,2.44,8.45c2.69,3.92,4.19,4.51,4.19,4.51s-.64,2.26-.27,2.9,1.88-2.31,3.76-1.88,2,4.14.22,6.28a4.85,4.85,0,0,1-4.3,1.72s-.8,5.75,2.36,10.31a12,12,0,0,0,14.61,4.14,10.71,10.71,0,0,0,6.39-12.19c-.86-4.78-7.09-8.43-7.09-8.43s2.42-10.57-1.72-15.81-15.73-5.19-20.13-3.26c0,0-4.25-1.55-6.93,1.29a6.42,6.42,0,0,0,1.07,9.59S299.2,176.84,302.4,175.09Z"/><path class="cls-22" d="M302.48,211.39l-15.31,18,6.61,7.13,18.75-14.69a7.28,7.28,0,0,0,.94-10.58h0A7.29,7.29,0,0,0,302.48,211.39Z"/><path class="cls-20" d="M280.05,203.12s1.43,22.42,1.86,26.93,2.4,8.09,6.34,8.37a8.12,8.12,0,0,0,5.53-1.89l-6.43-34Z"/><path class="cls-20" d="M283.31,193.67a3.55,3.55,0,0,0-1.18,1.29,3.26,3.26,0,0,0-1.83,1.65,8.52,8.52,0,0,0-1,1.68c-.57,1.22,1,5.91,1,5.91l7.22-.6a31.92,31.92,0,0,0,1.62-4.17c.32-1.36-.65-3-.93-3.5s-.79-.36-1,.14a7.65,7.65,0,0,0,.17,2.43l-.51.72a3.15,3.15,0,0,1-.7-2.29c.1-1.43,2.15-4.94,1.43-5.91s-2.44,2.15-2.44,2.15A5.88,5.88,0,0,0,283.31,193.67Z"/><path class="cls-23" d="M294.26,253.71l1.86,47.3h21.49s6.54-39.25,4.56-47.55C322.17,253.46,304.36,256,294.26,253.71Z"/><path class="cls-19" d="M302.23,356.94s-2.6,1.21-5.46,2.21-5.94,2.22-5.94,3.73,10.5,1.21,18.06,1.07,7.86-.36,8.14-1-1.45-7.17-1.45-7.17-7.21,2.51-10.5,2.51S302.23,356.94,302.23,356.94Z"/><path class="cls-24" d="M306.33,199.14a10.88,10.88,0,0,1-4.45,1.43"/><line class="cls-24" x1="280.69" y1="203.43" x2="284.97" y2="202.86"/><rect class="cls-20" x="152.42" y="359.16" width="13.06" height="7.71"/><path class="cls-19" d="M152.42,365.94s-.22,8.35,0,9.71c0,0,6.49.36,9.78.36s12.63.35,15.55-.36,1.79-1.93,1.07-3.14-13.63-6.57-13.63-6.57S157.77,367.09,152.42,365.94Z"/><path class="cls-25" d="M145.92,255.4s-.42,11.35,0,27.19,4.36,79.14,4.36,79.14l17,.79,6.28-107.12Z"/><path class="cls-20" d="M163.92,167.19l1.14,3.35s2.71,0,3,.86-1.43,2.28-1.43,2.28,1.82,7.21-.22,10.53-14.23,1.5-14.23,1.5a10.78,10.78,0,0,1-7.82-6.1c-2.78-5.57-4.82-9.85-3.74-15.42.62-3.25,6.45-5.51,12.11-5.34A12.26,12.26,0,0,1,163.92,167.19Z"/><polygon class="cls-20" points="159.35 185.07 160.1 192.45 147.79 190.74 146.81 182.96 159.35 185.07"/><path class="cls-19" d="M159.52,161.2a13,13,0,0,1-6.07,4.78s1.47,5.89.32,6.55-1.07-.92-3.35-1.13-2.5,2.71-1.78,5.35a4.27,4.27,0,0,0,4.49,3.07c1-.21,1.29,1-.71,2.79a37,37,0,0,1-5.2,3.6s-9-8.28-10.57-12.51,0-6.58,0-6.58-1.15-5.49,3.35-8.28,13.63-3.43,17.34-3.07,3.36,2.36,3.36,2.36a2.93,2.93,0,0,1,2.28,2.14,3.76,3.76,0,0,1-.79,3.6A15.88,15.88,0,0,0,159.52,161.2Z"/><path class="cls-26" d="M147.64,189.54a62.63,62.63,0,0,0-7.31,14.69c-2.33,7.49,5.59,51.17,5.59,51.17h27.62s-.84-42.38-2.86-49.76a25.22,25.22,0,0,0-10.58-14Z"/><line class="cls-27" x1="155.94" y1="256.07" x2="155.28" y2="358.64"/><line class="cls-27" x1="150.08" y1="358.64" x2="167.82" y2="358.64"/><path class="cls-28" d="M142,202.41c-3.91,7.12-11.24,21.59-15.34,36.93l11.56,4.71,18.46-33.77a8.3,8.3,0,0,0,.31-7.47.89.89,0,0,0-.08-.17C154,196.53,145.27,196.47,142,202.41Z"/><path class="cls-20" d="M160.63,262.17s2.93.56,2.93,0-1.45-1.28-3.07-1.31c-.43,0-.87,0-1.28,0l0-.32,1.24-.24s2.68,1,2.84.45-1.8-2-3-1.87a20.65,20.65,0,0,0-2.31.39l-1.28.12c1-.65,1.92-1,1.7-1.4s-.82-.41-2.53.26a13.1,13.1,0,0,0-2.65,1.44l-.54,0-14.49-15.72-11.56-4.71s-3.32,7.49,1.81,13.6,22.59,14.23,22.59,14.23h0c1.9.82,7.54-1.42,7.54-1.42v-.05l1.08-.18s2.93.56,2.93,0-1.45-1.28-3.07-1.31c-.25,0-.5,0-.75,0v-.1l1.64-.27s2.93.55,2.93,0-1.45-1.29-3.07-1.32c-.44,0-.89,0-1.31,0l0-.12Z"/><path class="cls-24" d="M154.21,184.2s2.79,2.15,5.25,2"/><path class="cls-24" d="M152.71,259.77s1.51,3.27,1.3,4.66"/><path class="cls-20" d="M379.06,199.07s-7.81,14.1-13.34,25.25l-14.88-12.19-.93-1.07a7.12,7.12,0,0,0-1.12-2.19c-1.12-1.39-1.36-4.36-2.09-2.88-.38.79-.07,2.28.32,3.51l-3.11-.21a17.07,17.07,0,0,0-5.22-1c-2,.14-1.49.91-1.38,1.05s2.67.45,4.51,1.13l-.05.14a14.11,14.11,0,0,0-4.21-.69c-2,.15-1.49.91-1.38,1.06a39.31,39.31,0,0,1,4.94,1.3l0,.08a12.84,12.84,0,0,0-3.76-.56c-2,.14-1.49.91-1.38,1s2.52.43,4.34,1.07a10,10,0,0,0-2.69-.12c-1.95.27-1.43,1-1.31,1.14s1.89.22,3.58.58l7,2.43c2.22,4,10.08,17.21,17.51,20.58,2.25,1,5.34-.18,6.89-2.1l8.69-10.82Z"/><path class="cls-20" d="M383.14,333l2.33,25.46-4.06,4.71s1.25,3.87,13.66-.64l-1.31-5.62s1.74-17.8,1.31-23.33Z"/><path class="cls-20" d="M412.82,333l5.67,25.46.59,4.94a10.4,10.4,0,0,0,12.69,2L426.5,357l-2.19-24Z"/><path class="cls-29" d="M381.83,362.35s-8.08,6.15-8.22,7.38.58,1.6,2.62,1.82,12.29-1.31,15.93-2,3.78-1.39,3.78-1.39a14.86,14.86,0,0,0-1.15-6.8s-3,2.82-10.65,2.44A2.61,2.61,0,0,1,381.83,362.35Z"/><path class="cls-29" d="M418.71,360.31s.07,7.93,1.17,10.12,6.32,3.71,8.94,4.47,8.95,1.2,9.93-1-7-8.51-7-8.51a39.51,39.51,0,0,1-7.53.49C421.62,365.61,418.71,360.31,418.71,360.31Z"/><path class="cls-30" d="M417.91,267.23a55.91,55.91,0,0,0-7.63-20.07l-2.17-10.68c2-5.49,8.4-24,8.35-36.15L401,195.87l-8.5-.3s-5.15,1-13.48,3.5c0,0-3.78,15-3.27,22.22a67.21,67.21,0,0,0,2.59,13.32h0l-.19,13-2,105.11,21.38,1.68-.8-75.51,1.68.69,12.87,76.57,20.41-2.62S419.34,274.78,417.91,267.23Z"/><path class="cls-27" d="M389.46,196.71s-2.36,2.15-1,3.91,4.71-.36,4.71-.36a7.8,7.8,0,0,0,6.7,1.65c3.7-1,4.5-5.2,4.5-5.2"/><path class="cls-20" d="M416.69,200.33s-6.45,7.08-6.8,14.35c-.29,5.85,11.72,18.2,15.81,23.38l-15.53,14-.55.09a8,8,0,0,0-1.78-.67,6.94,6.94,0,0,0-3.7,0c-.16.2,0,.51.73.63a8.5,8.5,0,0,0,1.38.13l.65.35-2.6.43a17.89,17.89,0,0,0-3.63.39c-1.49.4-3,1.54-2.73,2.05s2.06-.29,2.89-.73l2.67,0,.1.15a13.45,13.45,0,0,0-2.44.33c-1.49.4-3,1.55-2.73,2s2.06-.29,2.89-.72l3.34-.05,0,.07a12.6,12.6,0,0,0-2,.3c-1.49.4-3,1.55-2.73,2.06s2.06-.29,2.89-.73l2.93,0h0a8.49,8.49,0,0,0-.88.18c-1.49.4-3,1.54-2.73,2.05s2.06-.29,2.89-.72l1.69,0h0s5,.55,7.14-2.68c3.59-1.68,20.17-12,22.15-15.55C438.89,236.21,416.69,200.33,416.69,200.33Z"/><path class="cls-19" d="M383.22,181.48s-2.17,7-1.9,11.66,4.74,3.75,5.85,3.34,2.79,1.56,4.23.93-.47-4.2-.47-4.2Z"/><path class="cls-20" d="M390.62,190.86l.26,8.76s.87.67,3.37.71,6.2-2.37,6.2-2.37l-.47-8.82Z"/><path class="cls-20" d="M405.17,178.11a4.13,4.13,0,0,0-1.88.25,78.09,78.09,0,0,0,.41-8l-20.27-1.22s-1.33,10.43-.24,16.4a11.46,11.46,0,0,0,4.21,6.59,7.56,7.56,0,0,0,8,1,11.08,11.08,0,0,0,6-5.79l.15-.38a11.06,11.06,0,0,0,4.12-2.44C408.06,182.26,408.38,178.32,405.17,178.11Z"/><path class="cls-19" d="M390.37,174.05c3.92,1.74,9.11.79,9.11.79a9.61,9.61,0,0,0-.2,4.74c.63,2.11,1.89,2.31,1.89,2.31s1.53-3.45,3.54-3.12,1.32,4.24-.21,5.88a4.52,4.52,0,0,1-3.08,1.63s-2.06,2.51-1.44,5c0,0,.37,5.4.47,6.66,0,0,.8.92,2.8-.15s4.61,1,8.18-1.24,3.12-5.58,1.21-10.22A47.35,47.35,0,0,1,410,176s-.13-6.69-2-10.1-5.21-4.72-9.07-5.5a11.28,11.28,0,0,0-6.75.67s-8.16.95-10.86,5.83c-4.78,8.68,1.47,12.1,1.47,12.1a19.19,19.19,0,0,0,3.37-9.13A10.47,10.47,0,0,0,390.37,174.05Z"/><path class="cls-31" d="M379.93,225.61s5.62-1.9,9-1.9,12.43,3,12.43,3"/><path class="cls-27" d="M393.15,200.26a43.66,43.66,0,0,0-1,9.69"/><path class="cls-27" d="M388.26,273.43s7.75,2,10.23,6.13"/><line class="cls-27" x1="410.63" y1="351.78" x2="431.12" y2="349.37"/><line class="cls-27" x1="376.3" y1="348.52" x2="397.57" y2="350.64"/><path class="cls-24" d="M425.7,238.06a32.13,32.13,0,0,1,6.07,1.65"/><path class="cls-24" d="M365.72,224.32a36.47,36.47,0,0,1,0,7.54"/><path class="cls-24" d="M390.93,193.87s4,.83,8.39-3.38"/><path class="cls-20" d="M57,332.3,59.53,356,57,368.3s-.63.89,5,1.78,8.64-1.4,8.64-1.4l-2-13.1.89-21.25Z"/><polygon class="cls-20" points="89.8 333.19 94.76 354.69 96.29 364.86 117.28 365.37 105.19 354.69 101.25 331.28 89.8 333.19"/><path class="cls-29" d="M58.64,360.87a5.7,5.7,0,0,0,4.62,3.91c5.49.59,6.16-3.68,6.16-3.68s1.94,7.71,2,9.49-3.86,4.07-7.78,4.07A8.57,8.57,0,0,1,56,370.84C55,369.31,58.64,360.87,58.64,360.87Z"/><path class="cls-29" d="M95.2,357.61a32.9,32.9,0,0,0,0,6.36c.39,1.91.84,3.12,1.28,3.25s7.82.46,9.6.54,10,.42,12.53,0,2.93-.54,3.31-1.63-11.12-6.49-11.12-6.49a23,23,0,0,1-6.88,1.23C99.72,361.05,97,357.49,95.2,357.61Z"/><polygon class="cls-20" points="70.48 177.86 70.48 186.23 60.31 185.61 58.7 173.82 70.48 177.86"/><path class="cls-20" d="M125.45,187.67a9.67,9.67,0,0,0-4.2-.14l0-.47c1.82-.34,5.34-.89,3.54-1.43-2.08-.63-5.38.3-5.38.3l-3.13-.85c.87-1.26,1.61-3.94.88-3.57s-3.34,4-4.08,4.92L99.39,201.22h0l-19.57-17.6c-2.09,2.23-2.71,13,.39,18.18S99.69,213,99.69,213c6.51-.19,14.6-15.37,17-20.15l3.31-.07s.93,0,1.55-.11h0c1.89-.18,4.36-.46,2.84-1.06a7.8,7.8,0,0,0-2.92-.38l0-.43c1.81-.27,5.48-.67,3.68-1.3a9.23,9.23,0,0,0-3.77-.2V189C122.88,188.77,127.42,188.35,125.45,187.67Z"/><path class="cls-20" d="M73.69,154s3.64,12.56,3.94,18.14-3.26,8.82-7.94,8.82A16.94,16.94,0,0,1,61,178.09l-5.84-10.73a8.69,8.69,0,0,1,2.93-11.47,30.41,30.41,0,0,1,5.17-2.68C69.47,150.8,73.69,154,73.69,154Z"/><path class="cls-20" d="M57,167.91s-3.25-1.13-4.3.91,1.46,5.2,3.69,6.25,5.51,0,5.51,0Z"/><path class="cls-32" d="M91.79,239.31s-5,3-15.69,3.62a125.71,125.71,0,0,1-13.48-.08c-5.77-.3-10.14-.82-10.14-.82l1.64-20.51-8.21-33.6c3.63-2.87,14-5.3,14-5.3s4.69,3.61,9.27,3.16c1.56-.15,1.32-3.64,1.32-3.64s5.88-.37,8.54.65a2.68,2.68,0,0,1,1,.56c6.62,6.6,4.85,37.11,4.85,37.11Z"/><path class="cls-19" d="M72.24,153.55a12.31,12.31,0,0,1-3.51,6c-3,3.11-5.88,3.28-5.88,3.28a7.21,7.21,0,0,1-2,2.55l-1.24.85a10.32,10.32,0,0,1,.51,4.69s-2.45-3.56-4.76-3.31-3.27,2.94-1.74,5.05a8.07,8.07,0,0,0,5.31,2.89l.81,5.59a6.77,6.77,0,0,1-4-.33l-.12-.05c-1.14-.51-2.44,1.13-4.81,1.19s-2.83-1.42-4.81-.8-5.77,1.3-7.07-2.71,1.87-5.2.85-7.58.29-4.18,2.38-5.31,0-7.07,3.11-9.45,3.9-2.6,4.58-4.07,3.57-2.94,6.2-2.83c3.27.13,2.54-3.14,7.14-2.69,5.43.53,6.51,2.81,6.51,2.81a8.33,8.33,0,0,1,5.2,2.32c4.47,3.88,3.62,9.1,1.52,12.74C76.36,164.37,73.59,155,72.24,153.55Z"/><path class="cls-20" d="M46.29,187.19l-18,19.2h0L13.41,192.82c-.82-.89-3.77-4.28-4.48-4.56s.2,2.31,1.18,3.49l-3,1.11s-3.37-.65-5.39.15c-1.75.7,1.81,1,3.65,1.13l0,.47a9.6,9.6,0,0,0-4.17.5c-1.91.85,2.66.87,4.21,1v.29a9.13,9.13,0,0,0-3.73.51c-1.75.79,2,.87,3.77,1v.43a7.77,7.77,0,0,0-2.87.64c-1.46.72,1,.78,2.92.81h0c.62,0,1.55,0,1.55,0l3.31-.21c2.78,4.56,12.14,19,18.64,18.62,0,0,19.08-10.11,21.73-15.49S48.56,189.24,46.29,187.19Z"/><path class="cls-33" d="M106.34,332.94l-5,.8-12.34,2-13-68.17-1.78-2.29v70.46H54.19s-5.34-49.6-5.34-64.62,3.93-32.88,3.93-32.88c19.72,6.05,38.07-1.47,38.07-1.47.18.46.36,1,.55,1.48C98.63,259.27,106.34,332.94,106.34,332.94Z"/><path class="cls-24" d="M28.28,206.39a43.14,43.14,0,0,1,4.27,5.32"/><path class="cls-24" d="M99.39,201.22a11.55,11.55,0,0,0,0,5.78"/><path class="cls-24" d="M70.48,180.92s-7.06,1-10.39-4.55"/><line class="cls-27" x1="54.97" y1="221.03" x2="58.7" y2="222.29"/><path class="cls-34" d="M50.46,251.42a10.29,10.29,0,0,0,7.6-9"/><path class="cls-34" d="M52.22,241s21,6.78,39.57-1.68"/><path class="cls-34" d="M74.28,265.27s1.52-4.59,5.37-6.73"/><path class="cls-34" d="M87.84,240.87s2.28,6.92,6.48,8.38"/><path class="cls-34" d="M53.58,329.94s7.26,1.09,20.7,0"/><path class="cls-34" d="M105.66,326.76a104.85,104.85,0,0,1-17.81,2.73"/><path class="cls-27" d="M57.2,183.32A16.92,16.92,0,0,0,68,187.55c6.38,0,4.34-5.47,4.34-5.47"/><path class="cls-27" d="M62.51,208.61a139.14,139.14,0,0,1,17.57-2.22"/></g></g></svg>